<svg preserveAspectRatio="none" width="100%" height="100%" overflow="visible" style="display: block;" viewBox="0 0 50 20" fill="none" xmlns="http://www.w3.org/2000/svg">
<g id="Apple_Pay_logo">
<path id="XMLID_34_" d="M8.90022 2.5785C8.32934 3.25404 7.41592 3.78687 6.50251 3.71075C6.38833 2.79734 6.83552 1.82683 7.35883 1.2274C7.92972 0.532826 8.92877 0.038059 9.73752 0C9.83267 0.951475 9.46159 1.88392 8.90022 2.5785ZM9.72801 3.89153C8.40546 3.81541 7.2732 4.6432 6.64523 4.6432C6.00774 4.6432 5.04675 3.92959 4.00013 3.94862C2.63952 3.96765 1.37406 4.73834 0.679481 5.96575C-0.747731 8.42055 0.308406 12.0552 1.68804 14.0533C2.36359 15.0428 3.17234 16.1275 4.238 16.0894C5.24656 16.0514 5.64618 15.4329 6.86407 15.4329C8.09147 15.4329 8.44352 16.0894 9.50917 16.0704C10.6129 16.0514 11.3075 15.0809 11.983 14.0913C12.7537 12.9686 13.0677 11.8744 13.0867 11.8173C13.0677 11.7983 10.9554 10.9895 10.9364 8.55376C10.9174 6.5176 12.6015 5.5471 12.6776 5.49001C11.7261 4.08183 10.2418 3.92959 9.72801 3.89153ZM17.3684 1.13226V15.9657H19.6709V10.8944H22.8584C25.7699 10.8944 27.8155 8.89629 27.8155 6.00381C27.8155 3.11132 25.8079 1.13226 22.9345 1.13226H17.3684V1.13226ZM19.6709 3.07326H22.3255C24.3236 3.07326 25.4654 4.13892 25.4654 6.01332C25.4654 7.88773 24.3236 8.96289 22.316 8.96289H19.6709V3.07326V3.07326ZM32.0211 16.0799C33.4673 16.0799 34.8089 15.3473 35.4178 14.1865H35.4654V15.9657H37.5967V8.5823C37.5967 6.44148 35.884 5.06185 33.2485 5.06185C30.8032 5.06185 28.9954 6.46051 28.9288 8.38249H31.003C31.1742 7.46908 32.0211 6.86965 33.1819 6.86965C34.59 6.86965 35.3798 7.52617 35.3798 8.73454V9.55281L32.5063 9.72407C29.8327 9.88582 28.3864 10.98 28.3864 12.883C28.3864 14.8049 29.8802 16.0799 32.0211 16.0799ZM32.6395 14.3197C31.4121 14.3197 30.6319 13.7298 30.6319 12.8259C30.6319 11.8934 31.3836 11.3511 32.8203 11.2655L35.3798 11.1037V11.941C35.3798 13.3302 34.1999 14.3197 32.6395 14.3197ZM40.4416 20C42.6871 20 43.7432 19.1437 44.6662 16.5461L48.7099 5.20457H46.3693L43.6576 13.9677H43.61L40.8983 5.20457H38.4911L42.3921 16.0038L42.1828 16.6603C41.8308 17.7736 41.2599 18.2017 40.2418 18.2017C40.061 18.2017 39.709 18.1827 39.5663 18.1637V19.9429C39.6995 19.981 40.2703 20 40.4416 20Z" fill="var(--fill-0, white)"/>
</g>
</svg>
